<?xml version="1.0" encoding="UTF-8" standalone="no"?>
<svg
   xmlns:dc="http://purl.org/dc/elements/1.1/"
   xmlns:cc="http://creativecommons.org/ns#"
   xmlns:rdf="http://www.w3.org/1999/02/22-rdf-syntax-ns#"
   xmlns:svg="http://www.w3.org/2000/svg"
   xmlns="http://www.w3.org/2000/svg"
   xmlns:xlink="http://www.w3.org/1999/xlink"
   xmlns:sodipodi="http://sodipodi.sourceforge.net/DTD/sodipodi-0.dtd"
   xmlns:inkscape="http://www.inkscape.org/namespaces/inkscape"
   width="191.9942mm"
   height="81.043968mm"
   viewBox="0 0 191.9942 81.043969"
   version="1.1"
   id="svg8"
   inkscape:version="1.0.1 (c497b03c, 2020-09-10)"
   sodipodi:docname="spinOS.svg"
   inkscape:export-filename="/Users/matthiasf/software/spinOS/rsc/spinos100.png"
   inkscape:export-xdpi="100"
   inkscape:export-ydpi="100">
  <defs
     id="defs2">
    <linearGradient
       inkscape:collect="always"
       id="linearGradient1161">
      <stop
         style="stop-color:#a3badd;stop-opacity:0.98039216"
         offset="0"
         id="stop1157" />
      <stop
         style="stop-color:#162d50;stop-opacity:0.98039216"
         offset="1"
         id="stop1159" />
    </linearGradient>
    <radialGradient
       inkscape:collect="always"
       xlink:href="#linearGradient1161"
       id="radialGradient1145"
       cx="106.67399"
       cy="171.78877"
       fx="106.67399"
       fy="171.78877"
       r="95.197098"
       gradientTransform="matrix(1,0,0,0.41726046,0,83.476105)"
       gradientUnits="userSpaceOnUse" />
    <radialGradient
       inkscape:collect="always"
       xlink:href="#linearGradient1161"
       id="radialGradient1163"
       gradientUnits="userSpaceOnUse"
       gradientTransform="matrix(1,0,0,0.42211677,0,82.78045)"
       cx="106.67399"
       cy="171.46042"
       fx="106.67399"
       fy="171.46042"
       r="95.997101" />
    <clipPath
       clipPathUnits="userSpaceOnUse"
       id="clipPath1451">
      <path
         style="fill:none;stroke:#000000;stroke-width:0.264583px;stroke-linecap:butt;stroke-linejoin:miter;stroke-opacity:1"
         d="m 71.579258,-68.973327 4.853041,11.612629 50.956901,20.27877 15.42573,-9.532755 15.42573,11.092659 -9.35943,29.2915551 -102.6071,-50.0902921 z"
         id="path1453" />
    </clipPath>
  </defs>
  <sodipodi:namedview
     id="base"
     pagecolor="#ffffff"
     bordercolor="#666666"
     borderopacity="1.0"
     inkscape:pageopacity="0.0"
     inkscape:pageshadow="2"
     inkscape:zoom="1.0661699"
     inkscape:cx="330.37634"
     inkscape:cy="309.51272"
     inkscape:document-units="mm"
     inkscape:current-layer="layer2"
     inkscape:document-rotation="0"
     showgrid="false"
     fit-margin-top="0"
     fit-margin-left="0"
     fit-margin-right="0"
     fit-margin-bottom="0"
     inkscape:window-width="2560"
     inkscape:window-height="1359"
     inkscape:window-x="0"
     inkscape:window-y="25"
     inkscape:window-maximized="0" />
  <metadata
     id="metadata5">
    <rdf:RDF>
      <cc:Work
         rdf:about="">
        <dc:format>image/svg+xml</dc:format>
        <dc:type
           rdf:resource="http://purl.org/dc/dcmitype/StillImage" />
        <dc:title></dc:title>
      </cc:Work>
    </rdf:RDF>
  </metadata>
  <g
     inkscape:groupmode="layer"
     id="layer3"
     inkscape:label="Layer 3"
     transform="translate(0.95074793,1.1014937)">
    <rect
       style="display:inline;fill:url(#radialGradient1163);fill-opacity:1;stroke:url(#radialGradient1145);stroke-width:1.6;stroke-linecap:square;stroke-linejoin:round;stroke-miterlimit:4;stroke-dasharray:none;stroke-opacity:1"
       id="rect1127"
       width="190.3942"
       height="79.44397"
       x="11.326147"
       y="103.52573"
       transform="translate(-11.476895,-103.82722)" />
    <path
       id="path1379"
       style="display:inline;opacity:1;fill:#c87137;fill-opacity:0.425101;fill-rule:evenodd;stroke:#c87137;stroke-width:0.699119;stroke-linecap:square;stroke-linejoin:round;stroke-miterlimit:4;stroke-dasharray:none;stroke-opacity:1"
       d="M 0.97898006,2.7864557 A 97.520313,4.8537713 20.638969 0 1 0.94198559,2.491417 97.520313,4.8537713 20.638969 0 1 93.994108,32.357635 97.520313,4.8537713 20.638969 0 1 183.46179,71.247062 v 0 a 97.520313,4.8537713 20.638969 0 1 -0.005,0.01164" />
    <path
       id="path1023-9"
       clip-path="none"
       style="display:inline;fill:#ff0000;fill-opacity:1;stroke:none;stroke-width:0.0689761"
       d="M 5.2415098,0.56379925 C 5.0126047,0.5653004 4.7706936,0.59647893 4.5106713,0.66707574 3.0712953,1.0578558 2.6025498,2.5865503 3.3335866,3.733335 3.9916719,4.7656854 5.3125127,5.396416 6.5875716,5.3998021 6.4638359,5.8504884 6.0552339,6.231414 5.8284829,6.6478339 5.2507649,7.7088389 4.6570863,8.9796795 4.5844351,10.180532 c -0.052045,0.860266 -0.1830206,1.737565 0.04813,2.590127 0.2429936,0.896256 0.5791703,1.73889 1.2754366,2.427698 1.6669079,1.649012 4.3408213,1.08709 6.1156083,-0.04703 2.561266,-1.636794 4.451258,-4.864496 4.451472,-7.7597146 1.44e-4,-2.4467278 -1.144752,-5.1792843 -4.227042,-5.1792843 -0.50834,0 -1.04691,0.044699 -1.505097,0.265703 C 10.580946,2.0011979 10.430819,1.4538489 10.038261,1.0869598 9.4154977,0.50489597 8.3240964,0.68531092 7.9488047,1.4152111 6.9851911,1.1074355 6.2334327,0.55738991 5.2415103,0.56379549 Z m 0.033481,0.22400466 C 5.5590792,0.78235702 5.8259077,0.83006299 6.157543,0.89447413 6.7654031,1.0125405 7.2672911,1.317189 7.7337903,1.6809189 7.4562984,2.2373455 7.2012667,2.8552792 7.1640816,3.4739352 7.1402943,3.8696891 7.3421968,4.5904122 7.0981652,4.9251235 6.7432936,5.4117979 5.5940594,5.0663997 5.1426354,4.880997 3.3447267,4.1428147 2.2048299,1.4872848 4.7277786,0.86295415 4.9280628,0.81338567 5.1045394,0.79105497 5.2749919,0.78779923 Z M 9.1829125,0.92695962 C 9.959066,0.96759582 10.437569,2.0085651 10.456779,2.6108813 L 8.8805323,3.2746556 C 8.7507066,2.6889448 8.5024509,2.0954792 8.0204761,1.6809189 v -0.06643 C 8.2781935,1.3250736 8.5976421,0.98411908 9.023875,0.93229218 c 0.054349,-0.006565 0.1072941,-0.008069 0.1590375,-0.005345 z M 8.0204761,1.9466219 c 0.7265081,0.9979424 0.7097917,1.9370482 -0.5728478,2.5232178 0,-0.6948336 -0.2149915,-2.1257817 0.5728478,-2.5232178 z M 11.961879,2.469789 c 0.129301,0.003 0.251163,0.00826 0.357309,0.00826 1.908626,0 3.250404,1.240839 3.694476,2.9217714 C 16.895793,8.7387526 15.109227,12.343412 12.44579,14.54139 10.896765,15.819735 8.5014211,16.609917 6.6220995,15.445656 3.9852738,13.812111 4.4677082,9.7713954 5.6563671,7.4987806 6.0067892,6.8288296 6.5548248,5.3593996 7.4476283,5.2669647 7.7660311,6.5684193 9.2592581,6.8299668 10.082205,5.7663713 10.477772,5.2551923 10.738643,4.4959854 10.742942,3.8725066 10.744967,3.590429 10.603685,2.8781306 10.858034,2.6778086 11.123059,2.4691285 11.573972,2.460792 11.961879,2.469804 Z M 5.9137562,2.7364603 c -0.070899,0.00141 -0.1446534,0.024029 -0.2144909,0.075155 -0.361456,0.2645779 0.114533,0.8001771 0.4870512,0.5275281 C 6.4800055,3.1241722 6.2209887,2.7303728 5.9137562,2.7364603 Z M 10.52845,2.8761002 C 10.718747,3.8259847 10.411352,5.0736731 9.7578532,5.8429665 8.9069634,6.8446703 7.9524846,5.9798881 7.5904478,5.1340991 L 8.7769495,4.139649 9.379616,3.9175837 9.3100365,3.2746556 Z M 8.4505042,4.0717684 C 8.3037699,4.4613156 8.0349509,4.7694516 7.5904478,4.8683933 7.7461385,4.4887889 8.0184682,4.1811493 8.4505042,4.0717684 Z m 2.0486508,4.9067912 c -0.07091,0.00142 -0.144649,0.024033 -0.214491,0.075159 -0.3614635,0.264554 0.114553,0.8001829 0.48705,0.5275298 0.293689,-0.2149518 0.03469,-0.6087768 -0.272559,-0.6026846 z M 79.437598,25.272314 c -0.186165,-4.05e-4 -0.385652,0.02997 -0.597437,0.09698 -1.869292,0.591591 -1.028648,3.916497 0.941667,3.357176 1.992728,-0.565859 1.455361,-3.450233 -0.34423,-3.45415 z m 0.03505,0.207037 c 1.634136,0.02641 1.896176,2.835701 0.195658,3.020197 -1.955985,0.212296 -2.313624,-2.833675 -0.358357,-3.013894 0.05554,-0.0052 0.109986,-0.0071 0.162699,-0.0063 z m -0.04865,1.295547 c -0.07092,0.0014 -0.144109,0.02402 -0.213965,0.07516 -0.361105,0.264553 0.114482,0.800182 0.487052,0.527527 0.293396,-0.214951 0.03421,-0.608774 -0.273087,-0.602682 z m 21.717992,5.038191 c -0.14583,-1.84e-4 -0.30605,0.01945 -0.48077,0.06255 -1.546161,0.381226 -3.042832,1.815679 -3.668318,3.151595 -0.549539,1.175485 -0.260361,2.424808 1.375359,2.098964 1.631424,-0.324916 3.145439,-2.042566 3.722199,-3.410028 0.38556,-0.915422 0.0723,-1.901804 -0.94846,-1.903079 z m 0.0355,0.268613 c 1.03669,0.06439 0.93536,1.13408 0.46141,2.004415 -0.69642,1.279542 -2.096747,2.669333 -3.700227,2.904801 -1.194368,0.175506 -1.06848,-1.142213 -0.743916,-1.812896 0.593245,-1.224224 1.958193,-2.788058 3.466383,-3.058985 0.19678,-0.03534 0.36826,-0.04654 0.51636,-0.03733 z m -1.69187,2.130479 c -0.07091,0.0014 -0.144638,0.02403 -0.214483,0.07516 -0.361109,0.264554 0.114484,0.800186 0.487047,0.527528 0.293406,-0.214948 0.03469,-0.608775 -0.272564,-0.60268 z m 7.84775,1.939443 c -0.79951,0.0046 -1.96501,1.474605 -0.43892,1.520525 0.0501,1.427886 2.34017,0.215844 2.78367,-0.410678 0.4392,-0.620082 -0.0731,-1.038098 -0.7774,-0.877598 -0.3525,0.08042 -0.65088,0.284207 -1.00339,0.358313 -0.072,-0.431146 -0.29744,-0.592093 -0.56396,-0.590562 z m -0.18886,0.228854 c 0.0743,0.0016 0.15501,0.01631 0.24223,0.04655 0.30737,0.106712 0.32035,0.422358 0.0811,0.580864 -0.39835,-0.66942 -0.72812,0.07083 -0.57336,0.531407 l -0.43002,-0.13285 c -0.0464,-0.40876 0.16022,-1.037306 0.68008,-1.025969 z m 2.4724,0.228855 c -0.0144,0.436077 -0.28269,0.674706 -0.64451,0.929963 -0.36038,-0.718623 -0.90154,-0.234343 -0.57338,0.398555 l -1.21789,0.132366 c 0.0337,-1.032583 1.53016,-1.460884 2.43578,-1.460884 z m 8.02615,3.044441 c -0.11309,-0.0073 -0.24601,0.01016 -0.39968,0.05867 -0.71434,0.225442 -1.46456,0.920671 -1.75831,1.556887 -0.26796,0.581037 -0.0331,1.113472 0.72352,0.922692 0.73654,-0.185799 1.49907,-0.897012 1.80643,-1.530707 0.23111,-0.475491 0.11809,-0.975631 -0.37196,-1.007542 z m 0.28511,0.275887 c -0.006,0.494247 -0.2211,1.021556 -0.71618,1.261608 -0.0832,-1.009342 -1.30407,0.122314 -0.21502,0.199277 -0.13972,0.24689 -1.07903,0.957505 -1.31833,0.510074 -0.17196,-0.323187 0.11148,-0.697006 0.30708,-0.942569 0.50727,-0.63861 1.08125,-1.028323 1.94245,-1.02839 z m 10.09469,3.823129 c -0.15111,-2.24e-4 -0.31592,0.0249 -0.49387,0.07952 -1.73529,0.532561 -1.39203,3.292684 0.62412,2.707464 1.51549,-0.439605 1.3304,-2.784811 -0.13025,-2.78698 z m -0.0371,0.26037 c 1.31793,0.002 1.25037,2.003242 -0.0989,2.365638 -1.47164,0.395038 -1.62431,-1.942185 -0.3547,-2.298243 0.16612,-0.0466 0.31723,-0.06761 0.45358,-0.06739 z m -0.12767,0.956146 c -0.0709,0.0014 -0.14411,0.02452 -0.21396,0.07565 -0.36112,0.264554 0.11448,0.800183 0.48704,0.527529 0.29341,-0.214952 0.0342,-0.609259 -0.27308,-0.603167 z m 57.2199,10.881735 c -0.4012,-0.01213 -0.88516,0.19258 -1.15563,0.338917 -1.42865,0.772612 -2.70763,1.760067 -3.87548,2.842255 -4.10113,3.800839 -7.7889,7.888772 -10.94428,12.402259 -0.45424,0.650096 -0.82964,1.486801 -1.38634,2.059204 -0.44064,0.452213 -1.07323,0.733823 -1.44651,1.263063 -0.28158,0.401082 -0.23977,0.891186 0.30761,1.031298 -0.14472,0.538538 -0.59405,1.768744 0.28721,1.959324 0.45496,0.09828 1.05088,-0.216103 1.42557,-0.423284 0.97013,-0.535217 1.75564,-1.286891 2.69423,-1.852653 0.61043,-0.367879 1.56137,-0.45692 2.25633,-0.639531 1.25528,-0.33003 2.4903,-0.749992 3.71332,-1.169 0.60183,-0.205854 1.24662,-0.526339 1.87496,-0.638562 0.77452,-0.138784 1.71821,0.183034 1.86293,-0.822324 l 1.57626,-0.530923 c 0.20133,1.10098 1.23583,-0.499977 1.45435,-0.673957 0.17554,-0.139449 0.41868,-0.202135 0.62359,-0.295766 1.47882,-0.677321 2.9072,-1.466956 4.23697,-2.36806 0.52448,-0.354599 1.27337,-0.856007 1.49046,-1.44634 0.40553,-1.102308 -2.1236,-0.871916 -2.71828,-0.768989 -2.14513,0.370534 -4.22577,0.907191 -6.305,1.536038 -0.83398,0.252336 -2.02011,0.48102 -2.72297,0.96245 -0.26439,-0.379168 0.0755,-0.605079 0.3348,-0.917843 0.55599,-0.671345 1.12408,-1.336253 1.67147,-2.015566 1.70665,-2.117363 3.35735,-4.340504 4.58539,-6.732779 0.36183,-0.705212 1.1488,-1.982755 0.72822,-2.783587 -0.1174,-0.223192 -0.32845,-0.308368 -0.56918,-0.315644 z m 0.15799,0.270552 c 0.0618,0.0013 0.12326,0.0047 0.18467,0.01067 0.0666,1.455977 -0.65157,2.673803 -1.38739,3.930768 -1.21658,2.07712 -2.69499,4.075355 -4.26837,5.930819 -0.57319,0.675994 -1.07133,1.458289 -1.72692,2.069871 -0.34462,0.322061 -1.28225,-0.296018 -1.71644,-0.359767 -1.54544,-0.227765 -1.10087,1.305529 -1.07507,2.10769 -1.67155,0.351279 -3.44739,1.450861 -4.93696,2.22115 -0.57461,0.296825 -1.2939,0.880002 -1.94087,0.966327 0.71361,-1.650142 2.18926,-3.23055 3.31414,-4.657575 2.50481,-3.178764 5.26603,-6.191616 8.29243,-8.956351 1.24381,-1.136178 3.34401,-3.304327 5.26078,-3.2636 z m 3.47267,10.088502 c 0.17453,0.0032 0.34565,0.01927 0.50954,0.05478 0.25292,0.05511 0.62118,0.127553 0.62621,0.425708 0.007,0.493382 -0.72911,1.012592 -1.11745,1.261607 -1.13489,0.728454 -2.24796,1.407706 -3.46168,2.025265 -0.35178,0.17929 -1.58022,1.040914 -1.70702,0.365585 -0.72365,0.0073 -1.07891,0.460045 -1.28956,1.06233 l -1.57625,0.530923 c -0.0724,-1.054497 -1.09924,-2.524898 -2.07795,-3.054139 0.29232,-0.494047 1.43868,-0.653489 1.98535,-0.840749 2.08352,-0.711188 4.33991,-1.384683 6.54093,-1.668892 0.48953,-0.06325 1.04429,-0.171921 1.56788,-0.162428 z m -12.70311,0.274432 c -0.071,0.0014 -0.14411,0.02398 -0.21395,0.07516 -0.36111,0.264287 0.11448,0.80045 0.48704,0.527528 0.2934,-0.214734 0.0342,-0.608859 -0.27309,-0.602681 z m -0.0157,1.528281 c 0.51067,-0.02332 1.18455,0.187874 1.62124,0.337948 -0.20635,0.755678 -1.32011,1.10755 -2.07742,1.261608 -0.0918,-0.175971 -0.13288,-0.34282 -0.18519,-0.531407 -0.21674,-0.787222 0.1307,-1.044824 0.64137,-1.068149 z m 1.83625,0.603652 h 0.14335 v 0.132852 h -0.14335 z m 0.2961,0.286068 c 0.39049,-0.03984 0.73674,0.428325 0.96888,0.65941 0.76519,0.760992 1.31467,1.581588 1.31467,2.640069 l -1.57624,0.531407 c -0.89488,-0.749039 -2.2451,-1.093269 -2.723,-2.257998 0.60113,-0.508655 1.10291,-1.478595 2.01569,-1.572888 z m -1.37064,0.510558 c -0.13541,0.35991 -0.50416,0.680264 -0.85953,0.863537 -0.41342,-0.552482 0.37375,-0.716784 0.85953,-0.863537 z m -1.50458,0.531408 c 1.19581,0.575724 -0.87845,2.097588 -1.40936,2.589643 -0.85547,0.793528 -1.82141,2.076506 -2.89039,2.601763 -1.11412,0.54717 -2.7849,0.519286 -4.01151,0.519286 0.82252,-2.766395 3.95581,-3.705596 6.4771,-4.874307 0.57604,-0.266945 1.34839,-0.453897 1.83416,-0.836385 z m 2.68009,0.1377 c -0.31374,0.03909 -0.66151,0.486359 -0.10095,0.658927 0,0.128824 -0.0134,0.267665 0.011,0.395162 0.12897,0.687947 1.23439,-0.144155 0.41903,-0.395162 0,-0.128824 0.014,-0.267666 -0.0104,-0.395162 -0.0403,-0.214983 -0.17598,-0.281536 -0.3186,-0.263765 z m 5.34449,0.393222 0.14335,0.398556 h -0.57338 z m -7.37953,0.265705 h 0.0717 c 0.57748,0.741733 1.56817,1.7798 2.57911,1.992293 -0.34174,0.445571 -1.38862,0.641336 -1.93459,0.805355 -1.58127,0.474789 -3.3446,1.349232 -5.01543,1.452157 l 1.57625,-1.527311 z m 6.80616,0.664259 0.21501,0.132852 -0.35835,0.265704 z m -2.43578,1.06233 c -0.12467,0.334012 -0.51328,0.389259 -0.86006,0.398556 v -0.132852 z m -13.04,1.593738 h 0.14333 c -0.0351,0.245696 -0.5352,1.616409 -0.88987,1.388643 -0.5001,-0.321396 0.56384,-1.154899 0.74654,-1.388643 z m 3.15249,1.460887 c -0.3912,0.735093 -1.81847,1.481053 -2.60946,1.812409 -0.2959,0.123513 -0.80799,0.312563 -1.06304,0.0257 -0.321,-0.361238 0.004,-1.047103 0.09,-1.43955 z" />
  </g>
  <g
     inkscape:groupmode="layer"
     id="layer2"
     inkscape:label="Layer 2"
     style="display:inline"
     transform="translate(0.95074793,1.1014937)">
    <text
       xml:space="preserve"
       style="font-size:11.3532px;line-height:1.25;font-family:'CMU Serif';-inkscape-font-specification:'CMU Serif';display:inline;fill:#ffffff;stroke:#000000;stroke-width:1.57225;stroke-miterlimit:4;stroke-dasharray:none"
       x="79.614899"
       y="57.095047"
       id="text1117"
       transform="scale(0.85771194,1.1658926)"><tspan
         sodipodi:role="line"
         id="tspan1115"
         x="79.614899"
         y="57.095047"
         style="font-style:normal;font-variant:normal;font-weight:normal;font-stretch:expanded;font-size:75.6887px;font-family:'Stint Ultra Expanded';-inkscape-font-specification:'Stint Ultra Expanded, Expanded';letter-spacing:-0.00851495px;fill:#ffffff;stroke:#000000;stroke-width:1.57225;stroke-miterlimit:4;stroke-dasharray:none">O</tspan></text>
    <text
       xml:space="preserve"
       style="font-size:12.4588px;line-height:1.25;font-family:'CMU Serif';-inkscape-font-specification:'CMU Serif';display:inline;fill:#ffffff;stroke:#000000;stroke-width:1.67321;stroke-miterlimit:4;stroke-dasharray:none"
       x="136.15822"
       y="62.631516"
       id="text1121"
       transform="scale(0.93007622,1.0751807)"><tspan
         sodipodi:role="line"
         id="tspan1119"
         x="136.15822"
         y="62.631516"
         style="font-style:normal;font-variant:normal;font-weight:normal;font-stretch:normal;font-size:83.0589px;font-family:'Stint Ultra Expanded';-inkscape-font-specification:'Stint Ultra Expanded, ';fill:#ffffff;stroke:#000000;stroke-width:1.67321;stroke-miterlimit:4;stroke-dasharray:none">S</tspan></text>
  </g>
  <g
     inkscape:label="Layer 1"
     inkscape:groupmode="layer"
     id="layer1"
     transform="translate(-10.526147,-102.72573)"
     style="display:inline">
    <text
       xml:space="preserve"
       style="font-style:normal;font-variant:normal;font-weight:normal;font-stretch:normal;font-size:58.1265px;line-height:1.25;font-family:'Stint Ultra Condensed';-inkscape-font-specification:'Stint Ultra Condensed, ';font-variant-ligatures:normal;font-variant-caps:normal;font-variant-numeric:normal;font-variant-east-asian:normal;fill:#784421;fill-opacity:1;stroke:#c87137;stroke-width:0.620625;stroke-miterlimit:4;stroke-dasharray:none;stroke-opacity:1"
       x="16.582495"
       y="187.71086"
       id="text1095"
       transform="scale(1.0908549,0.91671221)"><tspan
         sodipodi:role="line"
         id="tspan1093"
         x="16.582495"
         y="187.71086"
         style="font-style:normal;font-variant:normal;font-weight:normal;font-stretch:normal;font-size:58.1265px;font-family:'Stint Ultra Condensed';-inkscape-font-specification:'Stint Ultra Condensed, ';font-variant-ligatures:normal;font-variant-caps:normal;font-variant-numeric:normal;font-variant-east-asian:normal;fill:#784421;fill-opacity:1;stroke:#c87137;stroke-width:0.620625;stroke-miterlimit:4;stroke-dasharray:none;stroke-opacity:1"
         dy="0 0 0"
         dx="0 0 0.098860674">spin</tspan></text>
    <text
       xml:space="preserve"
       style="font-size:10.5833px;line-height:1.25;font-family:'CMU Serif';-inkscape-font-specification:'CMU Serif';fill:#bacde1;fill-opacity:1;stroke:#000000;stroke-width:0.264583"
       x="67.647171"
       y="181.1129"
       id="text1125"><tspan
         sodipodi:role="line"
         id="tspan1123"
         x="67.647171"
         y="181.1129"
         style="font-style:normal;font-variant:normal;font-weight:normal;font-stretch:normal;font-family:'Stint Ultra Condensed';-inkscape-font-specification:'Stint Ultra Condensed, ';fill:#bacde1;fill-opacity:1;stroke:#000000;stroke-width:0.264583">v2.7.3</tspan></text>
    <path
       style="display:inline;opacity:1;fill:#c87137;fill-opacity:0.425101;fill-rule:evenodd;stroke:#c87137;stroke-width:0.699119;stroke-linecap:square;stroke-linejoin:round;stroke-miterlimit:4;stroke-dasharray:none;stroke-opacity:1"
       d="M 194.93371,175.08592 A 97.520313,4.8537713 20.638969 0 1 101.88656,145.20807 97.520313,4.8537713 20.638969 0 1 12.455876,106.61368"
       id="path1018" />
    <path
       style="display:inline;fill:#ff0000;fill-opacity:1;stroke:none;stroke-width:0.378615;stroke-miterlimit:4;stroke-dasharray:none;stroke-opacity:1"
       d="m 5.3369565,-85.530489 c -0.1222257,0.48034 -0.5261297,0.886721 -0.7501135,1.330541 -0.5706675,1.130818 -1.1567211,2.48528 -1.2284854,3.765147 -0.05141,0.91687 -0.1811446,1.851504 0.047185,2.760164 0.2400282,0.955229 0.5725501,1.853415 1.2603193,2.587548 1.6465654,1.757516 4.2875471,1.158844 6.0406751,-0.0499 2.530009,-1.744494 4.396942,-5.184579 4.397154,-8.270301 1.42e-4,-2.607718 -1.130959,-5.520328 -4.175633,-5.520328 -0.502137,0 -1.0336453,0.04755 -1.4862415,0.283094 -0.1600187,-0.508203 -0.3085014,-1.09139 -0.6962691,-1.482421 -0.6151628,-0.620364 -1.6931838,-0.427882 -2.0638951,0.350046 -1.1715128,-0.403727 -2.0262224,-1.199008 -3.3960848,-0.79773 -1.4218101,0.416495 -1.8850223,2.046223 -1.1629067,3.268466 0.650054,1.100279 1.9547978,1.772061 3.2142961,1.77567 m 1.1323751,-3.963312 c -0.2741056,0.593039 -0.5264129,1.251522 -0.5631443,1.910883 -0.023497,0.421795 0.1762259,1.189807 -0.064828,1.546541 -0.3505408,0.518698 -1.4856973,0.150818 -1.9316124,-0.04678 -1.7759675,-0.786752 -2.9022702,-3.617223 -0.4101109,-4.282635 0.5275736,-0.140867 0.8885394,-0.07616 1.4126804,0.03368 0.6004419,0.125835 1.0962098,0.45065 1.5570157,0.838312 m 2.6893907,0.990828 -1.5570157,0.707734 c -0.1282414,-0.62425 -0.3731883,-1.256724 -0.8492813,-1.698562 v -0.07077 c 0.2545721,-0.308459 0.5700801,-0.671767 0.9911113,-0.727006 0.8589065,-0.112692 1.3949445,1.103861 1.4151857,1.788608 m -2.406297,-0.707735 c 0.7176427,1.063605 0.7007987,2.064653 -0.5661875,2.689391 0,-0.740552 -0.2120372,-2.265804 0.5661875,-2.689391 m -0.5661875,3.538672 c 0.3145172,1.387089 1.7898603,1.665936 2.6027641,0.532358 0.3907402,-0.544814 0.648497,-1.354094 0.6527434,-2.0186 0.00198,-0.300638 -0.1377251,-1.059761 0.1135206,-1.273264 0.3490546,-0.296547 1.0241622,-0.212978 1.4435662,-0.212978 1.885333,0 3.210425,1.322494 3.649078,3.114031 0.871363,3.55863 -0.893585,7.400566 -3.524517,9.743167 -1.5301218,1.36246 -3.8962195,2.204734 -5.7526069,0.963864 -2.6046466,-1.741027 -2.128037,-6.047378 -0.9538844,-8.469529 0.3461458,-0.714033 0.8874282,-2.280532 1.769336,-2.379049 m -1.7266313,-2.616656 c -0.3570449,0.281989 0.1128341,0.852855 0.4808064,0.562266 0.357052,-0.281989 -0.1128836,-0.852855 -0.4808064,-0.562266 m 4.7698893,0.06881 c 0.1879742,1.012385 -0.11529,2.341893 -0.7608145,3.161803 -0.8405054,1.067617 -1.7832784,0.145935 -2.1408966,-0.755507 l 1.1715835,-1.059917 0.5954878,-0.236503 -0.068509,-0.685236 1.2031485,-0.42464 m -2.0524298,1.273921 c -0.144944,0.415179 -0.4102029,0.743829 -0.8492813,0.849282 0.1537907,-0.404584 0.4225174,-0.732704 0.8492813,-0.849282 m 1.8120124,5.30999 c -0.357052,0.281961 0.1128836,0.85282 0.4808348,0.562224 0.357052,-0.281961 -0.1128837,-0.85282 -0.4808348,-0.562224 m 67.718647,17.389034 c -1.846479,0.63052 -1.016306,4.174288 0.929963,3.578163 2.172037,-0.665482 1.301524,-4.339898 -0.929963,-3.578163 m 0.464274,0.123995 c 1.755889,-0.174669 2.087817,3.009428 0.353867,3.212406 -1.932115,0.226263 -2.285274,-3.020327 -0.353867,-3.212406 m -6.157289,1.343563 c -3.063924,0.26809 -5.82154,1.224946 -8.42204,2.90985 -0.687847,0.445731 -1.258493,1.010361 -1.910883,1.49247 -1.068183,0.789336 -2.796612,3.015302 -1.811658,4.381442 1.03216,1.431534 2.520596,0.54814 3.820562,1.121334 1.202229,0.530093 2.242882,0.840647 3.582198,0.742484 2.220163,-0.162778 4.448111,-1.547107 5.550053,-3.467827 0.489753,-0.85282 0.435257,-1.793895 1.055232,-2.564547 0.93421,-1.160755 2.150098,-3.338949 0.228599,-4.251714 -0.277432,-0.131851 -0.586004,-0.241974 -0.888915,-0.299018 -0.360237,-0.06787 -0.838665,-0.09639 -1.203148,-0.06447 m 6.058206,0.110689 c -0.356698,0.281962 0.113238,0.85282 0.48126,0.562225 0.356698,-0.281962 -0.113238,-0.85282 -0.48126,-0.562225 m -4.713511,4.456745 c -0.489044,-2.025323 -2.104802,-3.224013 -4.175633,-3.390543 -0.607661,-0.04883 -1.168965,0.133337 -1.769336,0.134965 0.409424,-0.357618 1.046598,-0.45295 1.557016,-0.604405 1.512428,-0.448774 4.106983,-1.048155 5.438939,0.142609 0.985166,0.88035 0.169856,3.380776 -1.050986,3.717374 m -5.520328,-3.087491 c 1.671668,-0.311828 3.828135,0.232703 4.780038,1.723616 0.276724,0.433842 0.752322,1.334504 0.421102,1.836217 -0.496122,0.751119 -1.501105,1.329621 -2.247765,1.794886 -2.057171,1.282202 -4.419447,2.372608 -6.845631,2.671768 -0.478995,0.05909 -0.884031,-0.423721 -1.132588,-0.786435 -0.700515,-1.022181 -0.675178,-2.175221 -0.294913,-3.303279 0.75126,-2.228444 3.139015,-3.529967 5.319757,-3.936773 m -3.986881,1.577682 -0.02364,0.04713 0.02364,-0.04713 m -0.117979,0.09434 c -0.933077,1.507828 -2.20254,2.779202 -1.576478,4.721579 0.201987,0.626911 0.680133,1.065282 0.939517,1.64803 -1.626869,0.387131 -3.793527,-0.534764 -3.089614,-2.47707 0.56916,-1.570604 2.266731,-3.141845 3.726575,-3.892539 m 3.439802,1.488224 c -0.357052,0.281961 0.112883,0.852819 0.480834,0.562224 0.357052,-0.281962 -0.112883,-0.85282 -0.480834,-0.562224 m 5.973066,0.776526 c -0.286633,2.876586 -3.534426,4.95414 -6.228063,4.95414 -0.783108,0 -2.393062,0.132771 -2.830938,-0.707734 2.346069,-0.02095 5.031355,-1.487728 6.944998,-2.730369 0.692164,-0.449623 1.353896,-1.222115 2.114003,-1.516037 m 26.1154,0.05053 c -1.527291,0.40631 -3.005749,1.934875 -3.623601,3.358695 -0.542832,1.252831 -0.256907,2.584292 1.35885,2.237007 1.611512,-0.346295 3.106954,-2.177133 3.676681,-3.63457 0.435254,-1.115036 -0.03114,-2.328588 -1.41193,-1.961132 m -31.663826,0.305317 c -0.357052,0.281961 0.112884,0.852819 0.480835,0.562224 0.357052,-0.281962 -0.112884,-0.85282 -0.480835,-0.562224 m 31.663826,-0.04615 c 1.554892,-0.301353 1.501104,1.036194 0.966057,2.096309 -0.687918,1.363734 -2.071539,2.844951 -3.655448,3.095914 -1.179793,0.187054 -1.055232,-1.217374 -0.734629,-1.932186 0.586005,-1.304779 1.934239,-2.971281 3.42402,-3.260037 m -1.373005,2.310895 c -0.356698,0.281961 0.113237,0.852819 0.481259,0.562224 0.356698,-0.281962 -0.113237,-0.85282 -0.481259,-0.562224 m 7.530289,3.607463 c 0.0495,1.521841 2.31146,0.230085 2.74955,-0.437663 0.43384,-0.660882 -0.0722,-1.106472 -0.76789,-0.935412 -0.34821,0.08571 -0.64262,0.303264 -0.99083,0.382247 -0.28451,-1.838057 -3.00079,0.925575 -0.99083,0.990828 m 0.56619,-0.707734 c -0.3935,-0.713467 -0.71906,0.0753 -0.56619,0.566187 l -0.42464,-0.141547 c -0.0524,-0.497891 0.22152,-1.301594 0.91086,-1.043766 0.30362,0.113733 0.31635,0.45019 0.08,0.619126 m 2.1232,-0.424641 c -0.0142,0.464769 -0.27955,0.718775 -0.63696,0.990828 -0.35599,-0.76591 -0.89033,-0.249901 -0.56618,0.424641 l -1.20315,0.141547 c 0.0333,-1.100527 1.51172,-1.557016 2.40629,-1.557016 m 7.53313,3.307101 c -0.70561,0.240276 -1.44661,0.980991 -1.73678,1.659071 -0.26469,0.619268 -0.0326,1.187154 0.71481,0.983822 0.72755,-0.198024 1.48058,-0.956432 1.7842,-1.631823 0.28097,-0.623727 0.0474,-1.287015 -0.76223,-1.01107 m 0.67659,0.231571 c -0.006,0.526767 -0.21869,1.088849 -0.70773,1.344695 -0.0821,-1.075756 -1.28808,0.130294 -0.21232,0.212321 -0.13801,0.263135 -1.06585,1.020482 -1.30223,0.543611 -0.16986,-0.344455 0.1104,-0.742909 0.30362,-1.004629 0.50107,-0.680629 1.06797,-1.095927 1.91866,-1.095998 m 9.48364,4.159214 c -1.71413,0.567603 -1.37512,3.509371 0.61644,2.885645 1.65185,-0.517 1.25835,-3.506612 -0.61644,-2.885645 m 0.003,0.264834 c 1.75022,-0.52981 1.821,2.023271 0.35032,2.449468 -1.45368,0.421032 -1.60443,-2.069981 -0.35032,-2.449468 m 0.1104,1.027489 c -0.3567,0.281961 0.11324,0.852819 0.48126,0.562224 0.3567,-0.281962 -0.11324,-0.85282 -0.48126,-0.562224 m 22.39272,13.232651 h -0.0708 c -0.50037,-0.666686 -0.68792,-1.699341 -1.01914,-2.470772 -0.62352,-1.451492 -1.39636,-2.879134 -2.3334,-4.152136 -1.27039,-1.72581 -3.87768,-4.399701 -6.25567,-2.984586 -0.36448,0.216779 -0.6405,0.533631 -0.91368,0.849635 -0.33476,0.387414 -0.57893,0.859331 -0.77285,1.332947 -0.33546,0.821396 -0.53009,1.738691 -0.65111,2.612318 -0.13589,0.977027 -0.0396,1.994962 -0.0156,2.972484 0.10686,4.387671 1.50889,9.176626 3.98454,12.851041 1.37584,2.041814 4.24782,5.513959 7.02285,3.659695 1.01277,-0.677302 1.57683,-2.063046 1.84223,-3.205329 0.0842,-0.364483 0.08,-0.847866 0.23426,-1.182624 0.17411,-0.379346 0.60087,-0.675887 0.85636,-1.004983 1.53012,-1.967006 2.81254,-4.222414 3.17277,-6.729846 0.1642,-1.13924 0.29584,-2.603118 -0.48409,-3.568468 -1.13237,-1.401172 -3.87626,-0.44106 -4.59673,1.020624 m 0.70773,10.474469 c -0.001,0.598035 -0.17268,1.210933 -0.38359,1.769336 -0.25124,0.667393 -0.56406,1.357434 -1.06868,1.877619 -1.78844,1.845064 -4.51605,0.106868 -5.78997,-1.475626 -3.26974,-4.063103 -4.61231,-8.858853 -5.23441,-13.91972 -0.2746,-2.239767 -0.21444,-5.557626 1.36593,-7.377494 1.41618,-1.630266 3.26266,-1.109657 4.80623,0.04062 1.94273,1.447458 3.22443,3.892398 4.19545,6.050917 0.35386,0.786434 0.88679,1.766363 0.99153,2.629587 0.0474,0.389607 -0.33547,0.735477 -0.55769,1.01482 -0.44942,0.56548 -0.85353,1.185384 -1.19112,1.823478 -1.05523,1.990149 -1.72829,4.027504 -1.66176,6.292537 0.0325,1.111143 0.91793,2.560583 2.19256,2.391434 0.92289,-0.122438 1.54357,-0.728966 2.33552,-1.117512 m 15.35784,9.059 c -0.14296,0.5739724 -0.58671,1.8854042 0.2838,2.088524 0.44941,0.1047447 1.03825,-0.2307214 1.40839,-0.4515345 0.95828,-0.5704339 1.73395,-1.3715895 2.66108,-1.9745785 0.60299,-0.392085 1.54216,-0.486922 2.22866,-0.681549 1.23995,-0.351744 2.46009,-0.799032 3.66819,-1.245612 0.59449,-0.219398 1.23146,-0.561234 1.85214,-0.680841 0.76506,-0.147916 1.69715,0.195335 1.84011,-0.876175 l 1.55701,-0.566187 c 0.19888,1.173423 1.22085,-0.532924 1.4367,-0.718351 0.1734,-0.148624 0.41332,-0.215151 0.61573,-0.314942 1.46077,-0.721889 2.87199,-1.563385 4.18554,-2.52378 0.51807,-0.377931 1.25765,-0.91227 1.47209,-1.541446 0.40058,-1.174839 -2.09772,-0.929255 -2.68514,-0.819556 -2.11896,0.394916 -4.17422,0.966765 -6.22806,1.636989 -0.82381,0.268939 -1.99511,0.5124 -2.6894,1.025507 -0.26115,-0.404116 0.0743,-0.644746 0.33052,-0.978088 0.5492,-0.71552 1.11043,-1.423962 1.65114,-2.147974 1.68582,-2.256682 3.31644,-4.626106 4.5295,-7.17579 0.35741,-0.751614 1.1345,-2.113295 0.71906,-2.966822 -0.30928,-0.634343 -1.27605,-0.224706 -1.70352,0.02484 -1.41122,0.823449 -2.67453,1.875496 -3.82813,3.028891 -4.05107,4.05093 -7.69378,8.408097 -10.81065,13.218567 -0.4487,0.692872 -0.81955,1.584618 -1.36946,2.194685 -0.43526,0.481967 -1.06019,0.782046 -1.42892,1.34611 -0.27814,0.427472 -0.23709,0.94978 0.30362,1.099112 m -14.9332,-9.908282 v -2.547843 c 0,-0.358963 -0.0821,-0.837604 0.0361,-1.180077 0.11041,-0.319471 0.48975,-0.64609 0.68933,-0.924088 0.37652,-0.522733 0.68721,-1.099395 0.86981,-1.717601 0.12314,-0.416006 0.19604,-0.954734 -0.1649,-1.282556 -0.63201,-0.574044 -1.4912,0.205526 -2.13807,0.291728 -0.0354,-0.557553 -0.56194,-1.376827 -0.38076,-1.910883 0.10687,-0.315933 0.44516,-0.53717 0.68084,-0.753808 0.89599,-0.823378 2.65613,-1.755677 3.63705,-0.554439 0.53292,0.652956 0.59237,1.63614 0.59237,2.440622 -7.1e-4,2.112446 -1.01277,4.418386 -2.14444,6.16649 -0.42393,0.654654 -0.95614,1.617173 -1.67733,1.972455 m 33.54662,-11.040656 c 0.0658,1.551779 -0.64334,2.849834 -1.37018,4.189505 -1.20173,2.213793 -2.6625,4.343507 -4.21668,6.321058 -0.56619,0.720474 -1.05806,1.554185 -1.70564,2.206008 -0.34042,0.343252 -1.26684,-0.315649 -1.69573,-0.383592 -1.52658,-0.242752 -1.08708,1.391406 -1.0616,2.246349 -1.65115,0.374392 -3.40562,1.5464 -4.877,2.367372 -0.5676,0.316357 -1.27817,0.937748 -1.91725,1.029753 0.7049,-1.75872 2.16283,-3.443127 3.27398,-4.964049 2.47424,-3.387924 5.20184,-6.598915 8.19131,-9.545567 1.26826,-1.25 3.43747,-3.672151 5.37879,-3.466837 m -34.82054,2.123203 c 0.0297,0.46208 0.55911,1.384541 0.36024,1.803661 -0.18684,0.393218 -0.95261,0.864993 -1.28029,1.192391 -0.77709,0.777022 -1.47917,1.713213 -1.86064,2.756838 -0.59308,1.621703 0.68509,2.002464 1.92858,1.262881 0.65182,-0.387697 1.15785,-1.048508 1.84294,-1.353896 0.007,0.830314 0.26115,1.641236 0.0941,2.477071 -0.0708,0.354575 0.006,0.917223 -0.18472,1.220134 -0.7049,1.122466 -3.11191,1.88045 -3.9074,0.536462 -1.327,-2.24281 0.11607,-5.808871 1.30506,-7.822659 0.35174,-0.596053 0.95686,-1.964246 1.7021,-2.072883 m 1.13238,4.812594 c 0.29088,-0.933148 -0.56902,-1.861837 -0.402,-2.817561 0.0913,-0.521034 1.49332,-0.937253 1.84578,-0.539011 0.17834,0.201634 0.13234,0.630521 0.10403,0.879502 -0.0814,0.719412 -0.82875,2.25654 -1.54781,2.47707 m -6.68102,-3.182823 c -0.35669,0.281961 0.11324,0.85282 0.48126,0.562224 0.3567,-0.281961 -0.11323,-0.85282 -0.48126,-0.562224 m 6.04406,2.616636 c -0.87759,-0.957565 -0.87759,1.099111 0,0.141546 0.16065,0.180968 0.4763,0.372623 0.4763,0.637032 7.1e-4,0.316782 -0.41473,0.598814 -0.61785,0.802005 -0.54637,0.546229 -1.98944,1.825742 -2.86137,1.331036 -0.41615,-0.236383 -0.13093,-1.16578 -0.006,-1.496151 0.39138,-1.03768 1.18687,-2.039619 1.97246,-2.807653 0.20736,-0.202695 0.59591,-0.656423 0.90519,-0.672418 0.23001,-0.01189 0.20241,0.361794 0.23426,0.507587 0.13305,0.602636 0.32556,1.054807 -0.10262,1.557016 m 32.48501,8.775906 c -0.71482,0.0078 -1.06585,0.49046 -1.27393,1.132375 l -1.55701,0.566187 c -0.0715,-1.123882 -1.08567,-2.691513 -2.05243,-3.255578 0.28875,-0.526554 1.42113,-0.69641 1.96113,-0.895991 2.05809,-0.757984 4.28675,-1.475627 6.46091,-1.778537 0.64474,-0.08988 1.40485,-0.266108 2.05243,-0.114653 0.24983,0.05874 0.6136,0.135885 0.61856,0.453658 0.007,0.525846 -0.72048,1.079295 -1.10407,1.344695 -1.12105,0.776385 -2.22016,1.500397 -3.41906,2.15859 -0.3475,0.191088 -1.56127,1.10902 -1.68653,0.389254 m -7.67185,-4.031963 c -0.35669,0.281678 0.11324,0.85282 0.48126,0.561941 0.3567,-0.281678 -0.11323,-0.85282 -0.48126,-0.561941 m 1.79765,1.90876 c -0.20383,0.805401 -1.30435,1.180501 -2.05243,1.344695 -0.0906,-0.18755 -0.13093,-0.365191 -0.1826,-0.566187 -0.42817,-1.678039 1.3723,-1.098404 2.23503,-0.778508 m 0.35387,0.283093 v 0.141547 h -0.14155 v -0.141547 h 0.14155 m 2.40629,3.821766 -1.55701,0.566188 c -0.88396,-0.798325 -2.21733,-1.164931 -2.68939,-2.406297 0.59379,-0.542125 1.0892,-1.576125 1.99085,-1.676623 0.38572,-0.04246 0.72756,0.456489 0.95686,0.70278 0.75586,0.811064 1.29869,1.685824 1.29869,2.813952 m -3.60944,-2.972484 c -0.13376,0.383592 -0.49825,0.72472 -0.84928,0.920054 -0.40837,-0.588835 0.36943,-0.763645 0.84928,-0.920054 m -9.69596,6.652703 c 0.81248,-2.948421 3.9074,-3.949158 6.39792,-5.19477 0.56901,-0.28451 1.33195,-0.484091 1.8118,-0.891746 1.18121,0.613606 -0.86769,2.235733 -1.39212,2.760164 -0.84503,0.845743 -1.79906,2.213086 -2.855,2.772904 -1.10052,0.583173 -2.75096,0.553448 -3.9626,0.553448 m 10.75756,-5.237234 c 0,0.1373 -0.0135,0.285216 0.0106,0.421101 0.12739,0.733213 1.21942,-0.153578 0.41402,-0.421101 0,-0.137301 0.0135,-0.285217 -0.0106,-0.421102 -0.1274,-0.733213 -1.21943,0.153578 -0.41403,0.421102 m 5.37878,-0.283094 0.14155,0.42464 h -0.56619 l 0.42464,-0.42464 m -7.28966,0.283094 h 0.0708 c 0.57043,0.790539 1.54923,1.896728 2.54784,2.123203 -0.33758,0.474889 -1.37158,0.683671 -1.91088,0.858481 -1.56197,0.506031 -3.3037,1.438117 -4.95414,1.547816 l 1.55702,-1.62779 2.68939,-2.90171 m 6.72347,0.707734 0.21232,0.141547 -0.35386,0.283094 0.14154,-0.424641 m -2.40629,1.132375 c -0.12315,0.35599 -0.50674,0.414732 -0.84928,0.424641 v -0.141547 l 0.84928,-0.283094 m -12.73922,1.698562 c -0.0347,0.261862 -0.52868,1.722626 -0.87901,1.479873 -0.494,-0.342543 0.55699,-1.23075 0.73746,-1.479873 h 0.14155 m 2.97248,1.557016 c -0.38642,0.783462 -1.79623,1.5782478 -2.57757,1.9314072 -0.29229,0.1316386 -0.79832,0.3333429 -1.05027,0.027602 -0.31707,-0.3850075 0.004,-1.1160972 0.0892,-1.5343682 z"
       id="path1023"
       clip-path="url(#clipPath1451)"
       transform="matrix(1.0123545,0,0,0.93826324,12.876091,189.64077)" />
  </g>
</svg>
